<svg xmlns="http://www.w3.org/2000/svg" viewBox="0 0 64 64" role="img" aria-labelledby="title">
  <title id="title">Grimoire</title>
  <rect width="64" height="64" rx="14" fill="#F8FAFC"/>
  <path
    d="M20 10h26a6 6 0 0 1 6 6v34H18a6 6 0 0 0-6 6V18a8 8 0 0 1 8-8Z"
    fill="none"
    stroke="#111827"
    stroke-linecap="round"
    stroke-linejoin="round"
    stroke-width="4"
  />
  <path
    d="M18 10v40M12 56a6 6 0 0 0 6 6h32M18 50h34M18 56h28"
    fill="none"
    stroke="#111827"
    stroke-linecap="round"
    stroke-linejoin="round"
    stroke-width="4"
  />
  <path
    d="M32 22 20 40h24L32 22Z"
    fill="none"
    stroke="#111827"
    stroke-linecap="round"
    stroke-linejoin="round"
    stroke-width="4"
  />
  <path
    d="M18 34c4.5-5.4 9.2-8 14-8s9.5 2.6 14 8c-4.5 5.4-9.2 8-14 8s-9.5-2.6-14-8Z"
    fill="#F8FAFC"
    stroke="#111827"
    stroke-linecap="round"
    stroke-linejoin="round"
    stroke-width="4"
  />
  <circle cx="32" cy="34" r="5" fill="#111827"/>
</svg>
